<svg width="542" height="439" xmlns="http://www.w3.org/2000/svg" xmlns:xlink="http://www.w3.org/1999/xlink" overflow="hidden"><defs><clipPath id="clip0"><rect x="369" y="142" width="542" height="439"/></clipPath><clipPath id="clip1"><rect x="420" y="207" width="476" height="273"/></clipPath><clipPath id="clip2"><rect x="420" y="207" width="476" height="273"/></clipPath><clipPath id="clip3"><rect x="420" y="207" width="476" height="273"/></clipPath><clipPath id="clip4"><rect x="420" y="207" width="476" height="273"/></clipPath><clipPath id="clip5"><rect x="369" y="193" width="541" height="351"/></clipPath><clipPath id="clip6"><rect x="369" y="193" width="541" height="351"/></clipPath><clipPath id="clip7"><rect x="369" y="193" width="541" height="351"/></clipPath><clipPath id="clip8"><rect x="369" y="193" width="541" height="351"/></clipPath><clipPath id="clip9"><rect x="369" y="193" width="541" height="351"/></clipPath><clipPath id="clip10"><rect x="369" y="193" width="541" height="351"/></clipPath><clipPath id="clip11"><rect x="369" y="193" width="541" height="351"/></clipPath><clipPath id="clip12"><rect x="369" y="193" width="541" height="351"/></clipPath><clipPath id="clip13"><rect x="369" y="193" width="541" height="351"/></clipPath><clipPath id="clip14"><rect x="369" y="193" width="541" height="351"/></clipPath><clipPath id="clip15"><rect x="369" y="193" width="541" height="351"/></clipPath><clipPath id="clip16"><rect x="369" y="193" width="541" height="351"/></clipPath><clipPath id="clip17"><rect x="369" y="193" width="541" height="351"/></clipPath><clipPath id="clip18"><rect x="369" y="193" width="541" height="351"/></clipPath><clipPath id="clip19"><rect x="369" y="193" width="541" height="351"/></clipPath><clipPath id="clip20"><rect x="369" y="193" width="541" height="351"/></clipPath><clipPath id="clip21"><rect x="369" y="193" width="541" height="351"/></clipPath><clipPath id="clip22"><rect x="369" y="193" width="541" height="351"/></clipPath><clipPath id="clip23"><rect x="369" y="193" width="541" height="351"/></clipPath><clipPath id="clip24"><rect x="369" y="193" width="541" height="351"/></clipPath><clipPath id="clip25"><rect x="369" y="193" width="541" height="351"/></clipPath><clipPath id="clip26"><rect x="369" y="193" width="541" height="351"/></clipPath><clipPath id="clip27"><rect x="369" y="193" width="541" height="351"/></clipPath><clipPath id="clip28"><rect x="369" y="193" width="541" height="351"/></clipPath><clipPath id="clip29"><rect x="369" y="193" width="541" height="351"/></clipPath><clipPath id="clip30"><rect x="369" y="193" width="541" height="351"/></clipPath><clipPath id="clip31"><rect x="369" y="193" width="541" height="351"/></clipPath><clipPath id="clip32"><rect x="369" y="193" width="541" height="351"/></clipPath><clipPath id="clip33"><rect x="369" y="193" width="541" height="351"/></clipPath><clipPath id="clip34"><rect x="369" y="193" width="541" height="351"/></clipPath></defs><g clip-path="url(#clip0)" transform="translate(-369 -142)"><g clip-path="url(#clip1)"><path d="M426 477 463 477 463 479 426 479ZM474 474 510 474 510 479 474 479ZM521 467 558 467 558 479 521 479ZM569 452 605 452 605 479 569 479ZM616 436 653 436 653 479 616 479ZM664 413 700 413 700 479 664 479ZM711 389 748 389 748 479 711 479ZM759 375 795 375 795 479 759 479ZM806 346 842 346 842 479 806 479ZM853 297 890 297 890 479 853 479Z" fill="#7FBA00"/></g><g clip-path="url(#clip2)"><path d="M426 336 463 336 463 477 426 477ZM474 305 510 305 510 474 474 474ZM521 291 558 291 558 467 521 467ZM569 274 605 274 605 452 569 452ZM616 264 653 264 653 436 616 436ZM664 254 700 254 700 413 664 413ZM711 248 748 248 748 389 711 389ZM759 246 795 246 795 375 759 375ZM806 243 842 243 842 346 806 346ZM853 241 890 241 890 297 853 297Z" fill="#FFB900"/></g><g clip-path="url(#clip3)"><path d="M426 266 463 266 463 336 426 336ZM474 246 510 246 510 305 474 305ZM521 241 558 241 558 291 521 291ZM569 233 605 233 605 274 569 274ZM616 224 653 224 653 264 616 264ZM664 222 700 222 700 254 664 254ZM711 221 748 221 748 248 711 248ZM759 219 795 219 795 246 759 246ZM806 219 842 219 842 243 806 243ZM853 219 890 219 890 241 853 241Z" fill="#F25022"/></g><g clip-path="url(#clip4)"><path d="M426 208 463 208 463 266 426 266ZM474 208 510 208 510 246 474 246ZM521 208 558 208 558 241 521 241ZM569 208 605 208 605 233 569 233ZM616 208 653 208 653 224 616 224ZM664 208 700 208 700 222 664 222ZM711 208 748 208 748 221 711 221ZM759 208 795 208 795 219 759 219ZM806 208 842 208 842 219 806 219ZM853 208 890 208 890 219 853 219Z" fill="#00A4EF"/></g><g clip-path="url(#clip5)"><path d="M420.5 479.5 895.5 479.5" stroke="#D9D9D9" stroke-linejoin="round" stroke-miterlimit="10" fill="none" fill-rule="evenodd"/></g><g clip-path="url(#clip6)"><text fill="#595959" font-family="Calibri,Calibri_MSFontService,sans-serif" font-weight="400" font-size="13" transform="translate(392.083 483)">0%</text></g><g clip-path="url(#clip7)"><text fill="#595959" font-family="Calibri,Calibri_MSFontService,sans-serif" font-weight="400" font-size="13" transform="translate(385.323 456)">10%</text></g><g clip-path="url(#clip8)"><text fill="#595959" font-family="Calibri,Calibri_MSFontService,sans-serif" font-weight="400" font-size="13" transform="translate(385.323 429)">20%</text></g><g clip-path="url(#clip9)"><text fill="#595959" font-family="Calibri,Calibri_MSFontService,sans-serif" font-weight="400" font-size="13" transform="translate(385.323 402)">30%</text></g><g clip-path="url(#clip10)"><text fill="#595959" font-family="Calibri,Calibri_MSFontService,sans-serif" font-weight="400" font-size="13" transform="translate(385.323 375)">40%</text></g><g clip-path="url(#clip11)"><text fill="#595959" font-family="Calibri,Calibri_MSFontService,sans-serif" font-weight="400" font-size="13" transform="translate(385.323 348)">50%</text></g><g clip-path="url(#clip12)"><text fill="#595959" font-family="Calibri,Calibri_MSFontService,sans-serif" font-weight="400" font-size="13" transform="translate(385.323 321)">60%</text></g><g clip-path="url(#clip13)"><text fill="#595959" font-family="Calibri,Calibri_MSFontService,sans-serif" font-weight="400" font-size="13" transform="translate(385.323 293)">70%</text></g><g clip-path="url(#clip14)"><text fill="#595959" font-family="Calibri,Calibri_MSFontService,sans-serif" font-weight="400" font-size="13" transform="translate(385.323 266)">80%</text></g><g clip-path="url(#clip15)"><text fill="#595959" font-family="Calibri,Calibri_MSFontService,sans-serif" font-weight="400" font-size="13" transform="translate(385.323 239)">90%</text></g><g clip-path="url(#clip16)"><text fill="#595959" font-family="Calibri,Calibri_MSFontService,sans-serif" font-weight="400" font-size="13" transform="translate(378.563 212)">100%</text></g><g clip-path="url(#clip17)"><text fill="#595959" font-family="Calibri,Calibri_MSFontService,sans-serif" font-weight="400" font-size="13" transform="translate(436.998 501)">D1</text></g><g clip-path="url(#clip18)"><text fill="#595959" font-family="Calibri,Calibri_MSFontService,sans-serif" font-weight="400" font-size="13" transform="translate(484.468 501)">D2</text></g><g clip-path="url(#clip19)"><text fill="#595959" font-family="Calibri,Calibri_MSFontService,sans-serif" font-weight="400" font-size="13" transform="translate(531.937 501)">D3</text></g><g clip-path="url(#clip20)"><text fill="#595959" font-family="Calibri,Calibri_MSFontService,sans-serif" font-weight="400" font-size="13" transform="translate(579.406 501)">D4</text></g><g clip-path="url(#clip21)"><text fill="#595959" font-family="Calibri,Calibri_MSFontService,sans-serif" font-weight="400" font-size="13" transform="translate(626.876 501)">D5</text></g><g clip-path="url(#clip22)"><text fill="#595959" font-family="Calibri,Calibri_MSFontService,sans-serif" font-weight="400" font-size="13" transform="translate(674.345 501)">D6</text></g><g clip-path="url(#clip23)"><text fill="#595959" font-family="Calibri,Calibri_MSFontService,sans-serif" font-weight="400" font-size="13" transform="translate(721.815 501)">D7</text></g><g clip-path="url(#clip24)"><text fill="#595959" font-family="Calibri,Calibri_MSFontService,sans-serif" font-weight="400" font-size="13" transform="translate(769.284 501)">D8</text></g><g clip-path="url(#clip25)"><text fill="#595959" font-family="Calibri,Calibri_MSFontService,sans-serif" font-weight="400" font-size="13" transform="translate(816.753 501)">D9</text></g><g clip-path="url(#clip26)"><text fill="#595959" font-family="Calibri,Calibri_MSFontService,sans-serif" font-weight="400" font-size="13" transform="translate(860.843 501)">D10</text></g><g clip-path="url(#clip27)"><rect x="406" y="521" width="8" height="7" fill="#7FBA00"/></g><g clip-path="url(#clip28)"><text fill="#595959" font-family="Calibri,Calibri_MSFontService,sans-serif" font-weight="400" font-size="13" transform="translate(416.852 529)">Ingreso Formal</text></g><g clip-path="url(#clip29)"><rect x="507" y="521" width="7" height="7" fill="#FFB900"/></g><g clip-path="url(#clip30)"><text fill="#595959" font-family="Calibri,Calibri_MSFontService,sans-serif" font-weight="400" font-size="13" transform="translate(517.385 529)">Ingreso Informal</text></g><g clip-path="url(#clip31)"><rect x="616" y="521" width="7" height="7" fill="#F25022"/></g><g clip-path="url(#clip32)"><text fill="#595959" font-family="Calibri,Calibri_MSFontService,sans-serif" font-weight="400" font-size="13" transform="translate(626.225 529)">Transferencia Privada</text></g><g clip-path="url(#clip33)"><rect x="752" y="521" width="8" height="7" fill="#00A4EF"/></g><g clip-path="url(#clip34)"><text fill="#595959" font-family="Calibri,Calibri_MSFontService,sans-serif" font-weight="400" font-size="13" transform="translate(762.905 529)">Transferencia Pública</text></g><text font-family="Calibri,Calibri_MSFontService,sans-serif" font-weight="700" font-size="14" transform="translate(379.496 160)">Componentes<tspan x="81.4733" y="0">de</tspan><tspan x="99.4467" y="0">los</tspan><tspan x="118.92" y="0">ingresos</tspan><tspan x="168.893" y="0">mensuales</tspan><tspan x="231.867" y="0">de</tspan><tspan x="249.84" y="0">hogares</tspan><tspan x="297.98" y="0">peruanos</tspan><tspan x="353.953" y="0">por</tspan><tspan x="376.927" y="0">decil</tspan><tspan x="406.733" y="0">de</tspan><tspan x="424.707" y="0">ingreso</tspan><tspan x="469.353" y="0">bruto</tspan><tspan x="504" y="0">del</tspan><tspan x="0" y="17">hogar,</tspan><tspan x="38.5" y="17">2019</tspan>.<tspan font-weight="300" font-size="13" x="0" y="408">Fuente</tspan><tspan font-weight="300" font-size="13" x="37.8333" y="408">:</tspan><tspan font-weight="300" font-size="13" x="44.3333" y="408">ENAHO</tspan><tspan font-weight="300" font-size="13" x="86.8333" y="408">2019</tspan><tspan font-weight="300" font-size="13" x="114.167" y="408">.</tspan><tspan font-weight="300" font-size="13" x="120.5" y="408">Elaboración</tspan><tspan font-weight="300" font-size="13" x="187" y="408">propia</tspan><tspan font-weight="300" font-size="13" x="222" y="408">.</tspan></text></g></svg>