<svg width="542" height="352" xmlns="http://www.w3.org/2000/svg" xmlns:xlink="http://www.w3.org/1999/xlink" overflow="hidden"><defs><clipPath id="clip0"><rect x="191" y="193" width="542" height="352"/></clipPath><clipPath id="clip1"><rect x="242" y="207" width="476" height="273"/></clipPath><clipPath id="clip2"><rect x="242" y="207" width="476" height="273"/></clipPath><clipPath id="clip3"><rect x="242" y="207" width="476" height="273"/></clipPath><clipPath id="clip4"><rect x="242" y="207" width="476" height="273"/></clipPath><clipPath id="clip5"><rect x="191" y="193" width="541" height="351"/></clipPath><clipPath id="clip6"><rect x="191" y="193" width="541" height="351"/></clipPath><clipPath id="clip7"><rect x="191" y="193" width="541" height="351"/></clipPath><clipPath id="clip8"><rect x="191" y="193" width="541" height="351"/></clipPath><clipPath id="clip9"><rect x="191" y="193" width="541" height="351"/></clipPath><clipPath id="clip10"><rect x="191" y="193" width="541" height="351"/></clipPath><clipPath id="clip11"><rect x="191" y="193" width="541" height="351"/></clipPath><clipPath id="clip12"><rect x="191" y="193" width="541" height="351"/></clipPath><clipPath id="clip13"><rect x="191" y="193" width="541" height="351"/></clipPath><clipPath id="clip14"><rect x="191" y="193" width="541" height="351"/></clipPath><clipPath id="clip15"><rect x="191" y="193" width="541" height="351"/></clipPath><clipPath id="clip16"><rect x="191" y="193" width="541" height="351"/></clipPath><clipPath id="clip17"><rect x="191" y="193" width="541" height="351"/></clipPath><clipPath id="clip18"><rect x="191" y="193" width="541" height="351"/></clipPath><clipPath id="clip19"><rect x="191" y="193" width="541" height="351"/></clipPath><clipPath id="clip20"><rect x="191" y="193" width="541" height="351"/></clipPath><clipPath id="clip21"><rect x="191" y="193" width="541" height="351"/></clipPath><clipPath id="clip22"><rect x="191" y="193" width="541" height="351"/></clipPath><clipPath id="clip23"><rect x="191" y="193" width="541" height="351"/></clipPath><clipPath id="clip24"><rect x="191" y="193" width="541" height="351"/></clipPath><clipPath id="clip25"><rect x="191" y="193" width="541" height="351"/></clipPath><clipPath id="clip26"><rect x="191" y="193" width="541" height="351"/></clipPath><clipPath id="clip27"><rect x="191" y="193" width="541" height="351"/></clipPath><clipPath id="clip28"><rect x="191" y="193" width="541" height="351"/></clipPath><clipPath id="clip29"><rect x="191" y="193" width="541" height="351"/></clipPath><clipPath id="clip30"><rect x="191" y="193" width="541" height="351"/></clipPath><clipPath id="clip31"><rect x="191" y="193" width="541" height="351"/></clipPath><clipPath id="clip32"><rect x="191" y="193" width="541" height="351"/></clipPath><clipPath id="clip33"><rect x="191" y="193" width="541" height="351"/></clipPath><clipPath id="clip34"><rect x="191" y="193" width="541" height="351"/></clipPath></defs><g clip-path="url(#clip0)" transform="translate(-191 -193)"><g clip-path="url(#clip1)"><path d="M248 477 285 477 285 479 248 479ZM296 474 332 474 332 479 296 479ZM343 467 380 467 380 479 343 479ZM391 452 427 452 427 479 391 479ZM438 436 475 436 475 479 438 479ZM486 413 522 413 522 479 486 479ZM533 389 570 389 570 479 533 479ZM580 375 617 375 617 479 580 479ZM628 346 664 346 664 479 628 479ZM675 297 712 297 712 479 675 479Z" fill="#7FBA00"/></g><g clip-path="url(#clip2)"><path d="M248 336 285 336 285 477 248 477ZM296 305 332 305 332 474 296 474ZM343 291 380 291 380 467 343 467ZM391 274 427 274 427 452 391 452ZM438 264 475 264 475 436 438 436ZM486 254 522 254 522 413 486 413ZM533 248 570 248 570 389 533 389ZM580 246 617 246 617 375 580 375ZM628 243 664 243 664 346 628 346ZM675 241 712 241 712 297 675 297Z" fill="#FFB900"/></g><g clip-path="url(#clip3)"><path d="M248 266 285 266 285 336 248 336ZM296 246 332 246 332 305 296 305ZM343 241 380 241 380 291 343 291ZM391 233 427 233 427 274 391 274ZM438 224 475 224 475 264 438 264ZM486 222 522 222 522 254 486 254ZM533 221 570 221 570 248 533 248ZM580 219 617 219 617 246 580 246ZM628 219 664 219 664 243 628 243ZM675 219 712 219 712 241 675 241Z" fill="#F25022"/></g><g clip-path="url(#clip4)"><path d="M248 208 285 208 285 266 248 266ZM296 208 332 208 332 246 296 246ZM343 208 380 208 380 241 343 241ZM391 208 427 208 427 233 391 233ZM438 208 475 208 475 224 438 224ZM486 208 522 208 522 222 486 222ZM533 208 570 208 570 221 533 221ZM580 208 617 208 617 219 580 219ZM628 208 664 208 664 219 628 219ZM675 208 712 208 712 219 675 219Z" fill="#00A4EF"/></g><g clip-path="url(#clip5)"><path d="M242.5 479.5 717.5 479.5" stroke="#D9D9D9" stroke-linejoin="round" stroke-miterlimit="10" fill="none" fill-rule="evenodd"/></g><g clip-path="url(#clip6)"><text fill="#595959" font-family="Calibri,Calibri_MSFontService,sans-serif" font-weight="400" font-size="13" transform="translate(214.063 483)">0%</text></g><g clip-path="url(#clip7)"><text fill="#595959" font-family="Calibri,Calibri_MSFontService,sans-serif" font-weight="400" font-size="13" transform="translate(207.303 456)">10%</text></g><g clip-path="url(#clip8)"><text fill="#595959" font-family="Calibri,Calibri_MSFontService,sans-serif" font-weight="400" font-size="13" transform="translate(207.303 429)">20%</text></g><g clip-path="url(#clip9)"><text fill="#595959" font-family="Calibri,Calibri_MSFontService,sans-serif" font-weight="400" font-size="13" transform="translate(207.303 402)">30%</text></g><g clip-path="url(#clip10)"><text fill="#595959" font-family="Calibri,Calibri_MSFontService,sans-serif" font-weight="400" font-size="13" transform="translate(207.303 375)">40%</text></g><g clip-path="url(#clip11)"><text fill="#595959" font-family="Calibri,Calibri_MSFontService,sans-serif" font-weight="400" font-size="13" transform="translate(207.303 348)">50%</text></g><g clip-path="url(#clip12)"><text fill="#595959" font-family="Calibri,Calibri_MSFontService,sans-serif" font-weight="400" font-size="13" transform="translate(207.303 321)">60%</text></g><g clip-path="url(#clip13)"><text fill="#595959" font-family="Calibri,Calibri_MSFontService,sans-serif" font-weight="400" font-size="13" transform="translate(207.303 293)">70%</text></g><g clip-path="url(#clip14)"><text fill="#595959" font-family="Calibri,Calibri_MSFontService,sans-serif" font-weight="400" font-size="13" transform="translate(207.303 266)">80%</text></g><g clip-path="url(#clip15)"><text fill="#595959" font-family="Calibri,Calibri_MSFontService,sans-serif" font-weight="400" font-size="13" transform="translate(207.303 239)">90%</text></g><g clip-path="url(#clip16)"><text fill="#595959" font-family="Calibri,Calibri_MSFontService,sans-serif" font-weight="400" font-size="13" transform="translate(200.543 212)">100%</text></g><g clip-path="url(#clip17)"><text fill="#595959" font-family="Calibri,Calibri_MSFontService,sans-serif" font-weight="400" font-size="13" transform="translate(258.979 501)">D1</text></g><g clip-path="url(#clip18)"><text fill="#595959" font-family="Calibri,Calibri_MSFontService,sans-serif" font-weight="400" font-size="13" transform="translate(306.448 501)">D2</text></g><g clip-path="url(#clip19)"><text fill="#595959" font-family="Calibri,Calibri_MSFontService,sans-serif" font-weight="400" font-size="13" transform="translate(353.918 501)">D3</text></g><g clip-path="url(#clip20)"><text fill="#595959" font-family="Calibri,Calibri_MSFontService,sans-serif" font-weight="400" font-size="13" transform="translate(401.387 501)">D4</text></g><g clip-path="url(#clip21)"><text fill="#595959" font-family="Calibri,Calibri_MSFontService,sans-serif" font-weight="400" font-size="13" transform="translate(448.856 501)">D5</text></g><g clip-path="url(#clip22)"><text fill="#595959" font-family="Calibri,Calibri_MSFontService,sans-serif" font-weight="400" font-size="13" transform="translate(496.326 501)">D6</text></g><g clip-path="url(#clip23)"><text fill="#595959" font-family="Calibri,Calibri_MSFontService,sans-serif" font-weight="400" font-size="13" transform="translate(543.795 501)">D7</text></g><g clip-path="url(#clip24)"><text fill="#595959" font-family="Calibri,Calibri_MSFontService,sans-serif" font-weight="400" font-size="13" transform="translate(591.265 501)">D8</text></g><g clip-path="url(#clip25)"><text fill="#595959" font-family="Calibri,Calibri_MSFontService,sans-serif" font-weight="400" font-size="13" transform="translate(638.734 501)">D9</text></g><g clip-path="url(#clip26)"><text fill="#595959" font-family="Calibri,Calibri_MSFontService,sans-serif" font-weight="400" font-size="13" transform="translate(682.823 501)">D10</text></g><g clip-path="url(#clip27)"><rect x="228" y="521" width="8" height="7" fill="#7FBA00"/></g><g clip-path="url(#clip28)"><text fill="#595959" font-family="Calibri,Calibri_MSFontService,sans-serif" font-weight="400" font-size="13" transform="translate(238.833 529)">Ingreso Formal</text></g><g clip-path="url(#clip29)"><rect x="329" y="521" width="7" height="7" fill="#FFB900"/></g><g clip-path="url(#clip30)"><text fill="#595959" font-family="Calibri,Calibri_MSFontService,sans-serif" font-weight="400" font-size="13" transform="translate(339.366 529)">Ingreso Informal</text></g><g clip-path="url(#clip31)"><rect x="438" y="521" width="7" height="7" fill="#F25022"/></g><g clip-path="url(#clip32)"><text fill="#595959" font-family="Calibri,Calibri_MSFontService,sans-serif" font-weight="400" font-size="13" transform="translate(448.206 529)">Transferencia Privada</text></g><g clip-path="url(#clip33)"><rect x="574" y="521" width="8" height="7" fill="#00A4EF"/></g><g clip-path="url(#clip34)"><text fill="#595959" font-family="Calibri,Calibri_MSFontService,sans-serif" font-weight="400" font-size="13" transform="translate(584.886 529)">Transferencia Pública</text></g></g></svg>